<mxfile modified="2024-03-11T02:01:48.870Z" host="app.diagrams.net" agent="Mozilla/5.0 (Windows NT 10.0; Win64; x64) AppleWebKit/537.36 (KHTML, like Gecko) Chrome/122.0.0.0 Safari/537.36" etag="0E3mBedU0WH_5D4_pRr1" version="24.0.4" type="device">
  <diagram id="Ht1M8jgEwFfnCIfOTk4-" name="Page-1">
    <mxGraphModel dx="1478" dy="1245" grid="1" gridSize="10" guides="1" tooltips="1" connect="1" arrows="1" fold="1" page="1" pageScale="1" pageWidth="827" pageHeight="1169" math="0" shadow="0">
      <root>
        <mxCell id="0" />
        <mxCell id="1" parent="0" />
        <mxCell id="jZVaUwOg5UY3L9NAnvdq-71" value="AWS Cloud" style="points=[[0,0],[0.25,0],[0.5,0],[0.75,0],[1,0],[1,0.25],[1,0.5],[1,0.75],[1,1],[0.75,1],[0.5,1],[0.25,1],[0,1],[0,0.75],[0,0.5],[0,0.25]];outlineConnect=0;gradientColor=none;html=1;whiteSpace=wrap;fontSize=14;fontStyle=1;shape=mxgraph.aws4.group;grIcon=mxgraph.aws4.group_aws_cloud_alt;strokeColor=#232F3E;fillColor=none;verticalAlign=top;align=left;spacingLeft=30;fontColor=#232F3E;dashed=0;labelBackgroundColor=none;container=1;pointerEvents=0;collapsible=0;recursiveResize=0;" parent="1" vertex="1">
          <mxGeometry x="80" y="190" width="880" height="939" as="geometry" />
        </mxCell>
        <mxCell id="Vx-Rbw_-6SfPUKyN-1fc-1" value="Region" style="points=[[0,0],[0.25,0],[0.5,0],[0.75,0],[1,0],[1,0.25],[1,0.5],[1,0.75],[1,1],[0.75,1],[0.5,1],[0.25,1],[0,1],[0,0.75],[0,0.5],[0,0.25]];outlineConnect=0;gradientColor=none;html=1;whiteSpace=wrap;fontSize=14;fontStyle=1;container=1;pointerEvents=0;collapsible=0;recursiveResize=0;shape=mxgraph.aws4.group;grIcon=mxgraph.aws4.group_region;strokeColor=#00A4A6;fillColor=none;verticalAlign=top;align=left;spacingLeft=30;fontColor=#147EBA;dashed=1;" vertex="1" parent="jZVaUwOg5UY3L9NAnvdq-71">
          <mxGeometry x="40" y="50" width="800" height="850" as="geometry" />
        </mxCell>
        <mxCell id="Vx-Rbw_-6SfPUKyN-1fc-2" value="VPC" style="points=[[0,0],[0.25,0],[0.5,0],[0.75,0],[1,0],[1,0.25],[1,0.5],[1,0.75],[1,1],[0.75,1],[0.5,1],[0.25,1],[0,1],[0,0.75],[0,0.5],[0,0.25]];outlineConnect=0;gradientColor=none;html=1;whiteSpace=wrap;fontSize=14;fontStyle=1;container=1;pointerEvents=0;collapsible=0;recursiveResize=0;shape=mxgraph.aws4.group;grIcon=mxgraph.aws4.group_vpc2;strokeColor=#8C4FFF;fillColor=none;verticalAlign=top;align=left;spacingLeft=30;fontColor=#AAB7B8;dashed=0;" vertex="1" parent="Vx-Rbw_-6SfPUKyN-1fc-1">
          <mxGeometry x="40" y="40" width="720" height="770" as="geometry" />
        </mxCell>
        <mxCell id="Vx-Rbw_-6SfPUKyN-1fc-34" value="" style="group;fontSize=14;fontStyle=1" vertex="1" connectable="0" parent="Vx-Rbw_-6SfPUKyN-1fc-2">
          <mxGeometry x="41" y="1" width="638" height="640" as="geometry" />
        </mxCell>
        <mxCell id="Vx-Rbw_-6SfPUKyN-1fc-3" value="Availability Zone 1" style="fillColor=none;strokeColor=#147EBA;dashed=1;verticalAlign=top;fontStyle=1;fontColor=#147EBA;whiteSpace=wrap;html=1;fontSize=14;" vertex="1" parent="Vx-Rbw_-6SfPUKyN-1fc-34">
          <mxGeometry y="80" width="280" height="560" as="geometry" />
        </mxCell>
        <mxCell id="Vx-Rbw_-6SfPUKyN-1fc-5" value="Public subnet" style="points=[[0,0],[0.25,0],[0.5,0],[0.75,0],[1,0],[1,0.25],[1,0.5],[1,0.75],[1,1],[0.75,1],[0.5,1],[0.25,1],[0,1],[0,0.75],[0,0.5],[0,0.25]];outlineConnect=0;gradientColor=none;html=1;whiteSpace=wrap;fontSize=14;fontStyle=1;container=1;pointerEvents=0;collapsible=0;recursiveResize=0;shape=mxgraph.aws4.group;grIcon=mxgraph.aws4.group_security_group;grStroke=0;strokeColor=#7AA116;fillColor=#F2F6E8;verticalAlign=top;align=left;spacingLeft=30;fontColor=#248814;dashed=0;" vertex="1" parent="Vx-Rbw_-6SfPUKyN-1fc-34">
          <mxGeometry x="40" y="120" width="200" height="300" as="geometry" />
        </mxCell>
        <mxCell id="Vx-Rbw_-6SfPUKyN-1fc-8" value="Private subnet" style="points=[[0,0],[0.25,0],[0.5,0],[0.75,0],[1,0],[1,0.25],[1,0.5],[1,0.75],[1,1],[0.75,1],[0.5,1],[0.25,1],[0,1],[0,0.75],[0,0.5],[0,0.25]];outlineConnect=0;gradientColor=none;html=1;whiteSpace=wrap;fontSize=14;fontStyle=1;container=1;pointerEvents=0;collapsible=0;recursiveResize=0;shape=mxgraph.aws4.group;grIcon=mxgraph.aws4.group_security_group;grStroke=0;strokeColor=#00A4A6;fillColor=#E6F6F7;verticalAlign=top;align=left;spacingLeft=30;fontColor=#147EBA;dashed=0;" vertex="1" parent="Vx-Rbw_-6SfPUKyN-1fc-34">
          <mxGeometry x="40" y="440" width="200" height="160" as="geometry" />
        </mxCell>
        <mxCell id="Vx-Rbw_-6SfPUKyN-1fc-9" value="formbricks-container" style="sketch=0;outlineConnect=0;fontColor=#232F3E;gradientColor=none;fillColor=#ED7100;strokeColor=none;dashed=0;verticalLabelPosition=bottom;verticalAlign=top;align=center;html=1;fontSize=14;fontStyle=1;aspect=fixed;pointerEvents=1;shape=mxgraph.aws4.container_1;" vertex="1" parent="Vx-Rbw_-6SfPUKyN-1fc-8">
          <mxGeometry x="76" y="64.5" width="48" height="31" as="geometry" />
        </mxCell>
        <mxCell id="Vx-Rbw_-6SfPUKyN-1fc-11" value="ECS" style="sketch=0;points=[[0,0,0],[0.25,0,0],[0.5,0,0],[0.75,0,0],[1,0,0],[0,1,0],[0.25,1,0],[0.5,1,0],[0.75,1,0],[1,1,0],[0,0.25,0],[0,0.5,0],[0,0.75,0],[1,0.25,0],[1,0.5,0],[1,0.75,0]];outlineConnect=0;fontColor=#232F3E;fillColor=#ED7100;strokeColor=#ffffff;dashed=0;verticalLabelPosition=bottom;verticalAlign=top;align=center;html=1;fontSize=14;fontStyle=1;aspect=fixed;shape=mxgraph.aws4.resourceIcon;resIcon=mxgraph.aws4.ecs;" vertex="1" parent="Vx-Rbw_-6SfPUKyN-1fc-34">
          <mxGeometry x="280" y="481" width="78" height="78" as="geometry" />
        </mxCell>
        <mxCell id="Vx-Rbw_-6SfPUKyN-1fc-18" value="Availability Zone 2" style="fillColor=none;strokeColor=#147EBA;dashed=1;verticalAlign=top;fontStyle=1;fontColor=#147EBA;whiteSpace=wrap;html=1;fontSize=14;" vertex="1" parent="Vx-Rbw_-6SfPUKyN-1fc-34">
          <mxGeometry x="358" y="80" width="280" height="560" as="geometry" />
        </mxCell>
        <mxCell id="Vx-Rbw_-6SfPUKyN-1fc-19" value="Public subnet" style="points=[[0,0],[0.25,0],[0.5,0],[0.75,0],[1,0],[1,0.25],[1,0.5],[1,0.75],[1,1],[0.75,1],[0.5,1],[0.25,1],[0,1],[0,0.75],[0,0.5],[0,0.25]];outlineConnect=0;gradientColor=none;html=1;whiteSpace=wrap;fontSize=14;fontStyle=1;container=1;pointerEvents=0;collapsible=0;recursiveResize=0;shape=mxgraph.aws4.group;grIcon=mxgraph.aws4.group_security_group;grStroke=0;strokeColor=#7AA116;fillColor=#F2F6E8;verticalAlign=top;align=left;spacingLeft=30;fontColor=#248814;dashed=0;" vertex="1" parent="Vx-Rbw_-6SfPUKyN-1fc-34">
          <mxGeometry x="398" y="120" width="200" height="300" as="geometry" />
        </mxCell>
        <mxCell id="Vx-Rbw_-6SfPUKyN-1fc-20" value="Private subnet" style="points=[[0,0],[0.25,0],[0.5,0],[0.75,0],[1,0],[1,0.25],[1,0.5],[1,0.75],[1,1],[0.75,1],[0.5,1],[0.25,1],[0,1],[0,0.75],[0,0.5],[0,0.25]];outlineConnect=0;gradientColor=none;html=1;whiteSpace=wrap;fontSize=14;fontStyle=1;container=1;pointerEvents=0;collapsible=0;recursiveResize=0;shape=mxgraph.aws4.group;grIcon=mxgraph.aws4.group_security_group;grStroke=0;strokeColor=#00A4A6;fillColor=#E6F6F7;verticalAlign=top;align=left;spacingLeft=30;fontColor=#147EBA;dashed=0;" vertex="1" parent="Vx-Rbw_-6SfPUKyN-1fc-34">
          <mxGeometry x="398" y="440" width="200" height="160" as="geometry" />
        </mxCell>
        <mxCell id="Vx-Rbw_-6SfPUKyN-1fc-21" value="formbricks-container" style="sketch=0;outlineConnect=0;fontColor=#232F3E;gradientColor=none;fillColor=#ED7100;strokeColor=none;dashed=0;verticalLabelPosition=bottom;verticalAlign=top;align=center;html=1;fontSize=14;fontStyle=1;aspect=fixed;pointerEvents=1;shape=mxgraph.aws4.container_1;" vertex="1" parent="Vx-Rbw_-6SfPUKyN-1fc-20">
          <mxGeometry x="76" y="64.5" width="48" height="31" as="geometry" />
        </mxCell>
        <mxCell id="Vx-Rbw_-6SfPUKyN-1fc-24" value="ALB" style="outlineConnect=0;dashed=0;verticalLabelPosition=bottom;verticalAlign=top;align=center;html=1;shape=mxgraph.aws3.application_load_balancer;fillColor=#F58534;gradientColor=none;fontSize=14;fontStyle=1" vertex="1" parent="Vx-Rbw_-6SfPUKyN-1fc-34">
          <mxGeometry x="300" y="176" width="40" height="40" as="geometry" />
        </mxCell>
        <mxCell id="Vx-Rbw_-6SfPUKyN-1fc-17" value="" style="fillColor=none;strokeColor=#5A6C86;verticalAlign=top;fontStyle=1;fontColor=#5A6C86;whiteSpace=wrap;html=1;fontSize=14;" vertex="1" parent="Vx-Rbw_-6SfPUKyN-1fc-34">
          <mxGeometry x="19" y="170" width="600" height="70" as="geometry" />
        </mxCell>
        <mxCell id="Vx-Rbw_-6SfPUKyN-1fc-29" value="" style="edgeStyle=orthogonalEdgeStyle;html=1;endArrow=block;elbow=vertical;startArrow=block;startFill=1;endFill=1;strokeColor=#545B64;rounded=0;fontSize=14;fontStyle=1" edge="1" parent="Vx-Rbw_-6SfPUKyN-1fc-34" source="Vx-Rbw_-6SfPUKyN-1fc-7" target="Vx-Rbw_-6SfPUKyN-1fc-9">
          <mxGeometry width="100" relative="1" as="geometry">
            <mxPoint x="379" y="270" as="sourcePoint" />
            <mxPoint x="479" y="270" as="targetPoint" />
          </mxGeometry>
        </mxCell>
        <mxCell id="Vx-Rbw_-6SfPUKyN-1fc-30" value="" style="edgeStyle=orthogonalEdgeStyle;html=1;endArrow=block;elbow=vertical;startArrow=block;startFill=1;endFill=1;strokeColor=#545B64;rounded=0;fontSize=14;fontStyle=1" edge="1" parent="Vx-Rbw_-6SfPUKyN-1fc-34" source="Vx-Rbw_-6SfPUKyN-1fc-21" target="Vx-Rbw_-6SfPUKyN-1fc-22">
          <mxGeometry width="100" relative="1" as="geometry">
            <mxPoint x="379" y="270" as="sourcePoint" />
            <mxPoint x="479" y="270" as="targetPoint" />
          </mxGeometry>
        </mxCell>
        <mxCell id="Vx-Rbw_-6SfPUKyN-1fc-31" value="" style="edgeStyle=orthogonalEdgeStyle;html=1;endArrow=block;elbow=vertical;startArrow=block;startFill=1;endFill=1;strokeColor=#545B64;rounded=0;fontSize=14;fontStyle=1" edge="1" parent="Vx-Rbw_-6SfPUKyN-1fc-34" source="Vx-Rbw_-6SfPUKyN-1fc-7" target="Vx-Rbw_-6SfPUKyN-1fc-22">
          <mxGeometry width="100" relative="1" as="geometry">
            <mxPoint x="379" y="270" as="sourcePoint" />
            <mxPoint x="479" y="270" as="targetPoint" />
            <Array as="points">
              <mxPoint x="140" y="260" />
              <mxPoint x="498" y="260" />
            </Array>
          </mxGeometry>
        </mxCell>
        <mxCell id="Vx-Rbw_-6SfPUKyN-1fc-36" value="" style="edgeStyle=orthogonalEdgeStyle;html=1;endArrow=block;elbow=vertical;startArrow=block;startFill=1;endFill=1;strokeColor=#545B64;rounded=0;fontSize=14;fontStyle=1" edge="1" parent="Vx-Rbw_-6SfPUKyN-1fc-34" source="Vx-Rbw_-6SfPUKyN-1fc-9" target="Vx-Rbw_-6SfPUKyN-1fc-21">
          <mxGeometry width="100" relative="1" as="geometry">
            <mxPoint x="119" y="410" as="sourcePoint" />
            <mxPoint x="219" y="410" as="targetPoint" />
            <Array as="points">
              <mxPoint x="140" y="620" />
              <mxPoint x="498" y="620" />
            </Array>
          </mxGeometry>
        </mxCell>
        <mxCell id="Vx-Rbw_-6SfPUKyN-1fc-7" value="NAT Gateway&lt;div style=&quot;font-size: 14px;&quot;&gt;&lt;br style=&quot;font-size: 14px;&quot;&gt;&lt;/div&gt;" style="sketch=0;outlineConnect=0;fontColor=#232F3E;gradientColor=none;fillColor=#8C4FFF;strokeColor=none;dashed=0;verticalLabelPosition=bottom;verticalAlign=top;align=center;html=1;fontSize=14;fontStyle=1;aspect=fixed;pointerEvents=1;shape=mxgraph.aws4.nat_gateway;" vertex="1" parent="Vx-Rbw_-6SfPUKyN-1fc-34">
          <mxGeometry x="101" y="300" width="78" height="78" as="geometry" />
        </mxCell>
        <mxCell id="Vx-Rbw_-6SfPUKyN-1fc-22" value="NAT Gateway" style="sketch=0;outlineConnect=0;fontColor=#232F3E;gradientColor=none;fillColor=#8C4FFF;strokeColor=none;dashed=0;verticalLabelPosition=bottom;verticalAlign=top;align=center;html=1;fontSize=14;fontStyle=1;aspect=fixed;pointerEvents=1;shape=mxgraph.aws4.nat_gateway;" vertex="1" parent="Vx-Rbw_-6SfPUKyN-1fc-34">
          <mxGeometry x="459" y="300" width="78" height="78" as="geometry" />
        </mxCell>
        <mxCell id="Vx-Rbw_-6SfPUKyN-1fc-25" value="Internet Gateway" style="sketch=0;outlineConnect=0;fontColor=#232F3E;gradientColor=none;fillColor=#8C4FFF;strokeColor=none;dashed=0;verticalLabelPosition=bottom;verticalAlign=top;align=center;html=1;fontSize=14;fontStyle=1;aspect=fixed;pointerEvents=1;shape=mxgraph.aws4.internet_gateway;" vertex="1" parent="Vx-Rbw_-6SfPUKyN-1fc-2">
          <mxGeometry x="41" y="664" width="78" height="78" as="geometry" />
        </mxCell>
        <mxCell id="Vx-Rbw_-6SfPUKyN-1fc-35" value="Database" style="outlineConnect=0;dashed=0;verticalLabelPosition=bottom;verticalAlign=top;align=center;html=1;shape=mxgraph.aws3.rds;fillColor=#2E73B8;gradientColor=none;fontSize=14;fontStyle=1" vertex="1" parent="Vx-Rbw_-6SfPUKyN-1fc-2">
          <mxGeometry x="327" y="671" width="66" height="71" as="geometry" />
        </mxCell>
        <mxCell id="Vx-Rbw_-6SfPUKyN-1fc-26" value="users" style="sketch=0;outlineConnect=0;gradientColor=none;fontColor=#545B64;strokeColor=none;fillColor=#879196;dashed=0;verticalLabelPosition=bottom;verticalAlign=top;align=center;html=1;fontSize=14;fontStyle=1;aspect=fixed;shape=mxgraph.aws4.illustration_users;pointerEvents=1" vertex="1" parent="1">
          <mxGeometry x="470" y="40" width="100" height="100" as="geometry" />
        </mxCell>
        <mxCell id="Vx-Rbw_-6SfPUKyN-1fc-28" value="" style="edgeStyle=orthogonalEdgeStyle;html=1;endArrow=block;elbow=vertical;startArrow=block;startFill=1;endFill=1;strokeColor=#545B64;rounded=0;entryX=0.5;entryY=0;entryDx=0;entryDy=0;fontSize=14;fontStyle=1" edge="1" parent="1" source="Vx-Rbw_-6SfPUKyN-1fc-26" target="Vx-Rbw_-6SfPUKyN-1fc-17">
          <mxGeometry width="100" relative="1" as="geometry">
            <mxPoint x="570" y="289" as="sourcePoint" />
            <mxPoint x="670" y="289" as="targetPoint" />
          </mxGeometry>
        </mxCell>
        <mxCell id="Vx-Rbw_-6SfPUKyN-1fc-38" value="" style="endArrow=classic;html=1;rounded=0;entryX=0.5;entryY=0;entryDx=0;entryDy=0;entryPerimeter=0;fontSize=14;fontStyle=1" edge="1" parent="1" target="Vx-Rbw_-6SfPUKyN-1fc-35">
          <mxGeometry width="50" height="50" relative="1" as="geometry">
            <mxPoint x="520" y="869" as="sourcePoint" />
            <mxPoint x="400" y="639" as="targetPoint" />
          </mxGeometry>
        </mxCell>
        <mxCell id="Vx-Rbw_-6SfPUKyN-1fc-42" value="" style="edgeStyle=orthogonalEdgeStyle;html=1;endArrow=openThin;elbow=vertical;startArrow=none;endFill=0;strokeColor=#545B64;rounded=0;entryX=0.5;entryY=1;entryDx=0;entryDy=0;" edge="1" parent="1" target="Vx-Rbw_-6SfPUKyN-1fc-17">
          <mxGeometry width="100" relative="1" as="geometry">
            <mxPoint x="520" y="540" as="sourcePoint" />
            <mxPoint x="690" y="570" as="targetPoint" />
            <Array as="points">
              <mxPoint x="520" y="533" />
              <mxPoint x="520" y="533" />
            </Array>
          </mxGeometry>
        </mxCell>
      </root>
    </mxGraphModel>
  </diagram>
</mxfile>
